<svg width="1200" height="630" viewBox="0 0 1200 630" fill="none" xmlns="http://www.w3.org/2000/svg">
  <rect width="1200" height="630" rx="32" fill="#F8FAFC"/>
  <rect x="34" y="34" width="1132" height="562" rx="28" fill="url(#bg)"/>

  <rect x="104" y="118" width="420" height="394" rx="28" fill="#FFFFFF"/>
  <rect x="136" y="154" width="176" height="22" rx="11" fill="#2563EB"/>
  <rect x="136" y="194" width="246" height="18" rx="9" fill="#0F172A"/>
  <rect x="136" y="226" width="204" height="14" rx="7" fill="#94A3B8"/>
  <rect x="136" y="270" width="168" height="76" rx="24" fill="#DBEAFE"/>
  <rect x="160" y="296" width="100" height="12" rx="6" fill="#2563EB"/>
  <rect x="160" y="318" width="72" height="12" rx="6" fill="#60A5FA"/>
  <rect x="334" y="270" width="158" height="76" rx="24" fill="#F1F5F9"/>
  <rect x="358" y="296" width="96" height="12" rx="6" fill="#64748B"/>
  <rect x="358" y="318" width="74" height="12" rx="6" fill="#94A3B8"/>
  <rect x="136" y="378" width="356" height="20" rx="10" fill="#E2E8F0"/>
  <rect x="136" y="414" width="356" height="20" rx="10" fill="#E2E8F0"/>
  <rect x="136" y="450" width="210" height="34" rx="17" fill="#0F172A"/>

  <rect x="578" y="118" width="514" height="394" rx="28" fill="#0F172A"/>
  <rect x="612" y="154" width="228" height="22" rx="11" fill="#F59E0B"/>
  <rect x="612" y="194" width="290" height="18" rx="9" fill="#FFFFFF"/>
  <rect x="612" y="226" width="246" height="14" rx="7" fill="#94A3B8"/>
  <rect x="612" y="270" width="446" height="84" rx="24" fill="#1E293B"/>
  <rect x="638" y="296" width="110" height="12" rx="6" fill="#FDE68A"/>
  <rect x="638" y="318" width="178" height="12" rx="6" fill="#FCD34D"/>
  <rect x="612" y="382" width="202" height="88" rx="24" fill="#111827" stroke="#334155"/>
  <rect x="842" y="382" width="216" height="88" rx="24" fill="#111827" stroke="#334155"/>
  <rect x="638" y="408" width="96" height="10" rx="5" fill="#E5E7EB"/>
  <rect x="638" y="428" width="74" height="10" rx="5" fill="#9CA3AF"/>
  <rect x="868" y="408" width="110" height="10" rx="5" fill="#E5E7EB"/>
  <rect x="868" y="428" width="84" height="10" rx="5" fill="#9CA3AF"/>

  <rect x="178" y="532" width="844" height="30" rx="15" fill="#FFFFFF" fill-opacity="0.72"/>
  <rect x="208" y="541" width="258" height="12" rx="6" fill="#2563EB"/>
  <rect x="792" y="538" width="198" height="18" rx="9" fill="#0F172A"/>

  <defs>
    <linearGradient id="bg" x1="90" y1="80" x2="1118" y2="566" gradientUnits="userSpaceOnUse">
      <stop stop-color="#DBEAFE"/>
      <stop offset="0.52" stop-color="#F8FAFC"/>
      <stop offset="1" stop-color="#E2E8F0"/>
    </linearGradient>
  </defs>
</svg>
