<svg width="1200" height="630" viewBox="0 0 1200 630" fill="none" xmlns="http://www.w3.org/2000/svg">
  <rect width="1200" height="630" rx="40" fill="#F8FAFC"/>
  <rect x="72" y="62" width="1056" height="506" rx="34" fill="url(#bg)"/>
  <rect x="136" y="128" width="320" height="278" rx="28" fill="#EFF6FF"/>
  <rect x="486" y="128" width="320" height="278" rx="28" fill="white"/>
  <rect x="836" y="128" width="228" height="278" rx="28" fill="#E2E8F0"/>
  <rect x="188" y="184" width="122" height="24" rx="12" fill="#2563EB"/>
  <rect x="538" y="184" width="122" height="24" rx="12" fill="#CBD5E1"/>
  <rect x="188" y="242" width="194" height="16" rx="8" fill="#93C5FD"/>
  <rect x="188" y="288" width="194" height="16" rx="8" fill="#93C5FD"/>
  <rect x="538" y="242" width="194" height="16" rx="8" fill="#CBD5E1"/>
  <rect x="538" y="288" width="194" height="16" rx="8" fill="#CBD5E1"/>
  <text x="136" y="520" fill="#0F172A" font-family="Fraunces, serif" font-size="52" font-weight="600">Chatting vs Intercom</text>
  <defs>
    <linearGradient id="bg" x1="104" y1="80" x2="1088" y2="540" gradientUnits="userSpaceOnUse">
      <stop stop-color="#FFFFFF"/>
      <stop offset="0.55" stop-color="#EFF6FF"/>
      <stop offset="1" stop-color="#F8FAFC"/>
    </linearGradient>
  </defs>
</svg>
