<svg width="1200" height="630" viewBox="0 0 1200 630" fill="none" xmlns="http://www.w3.org/2000/svg">
  <rect width="1200" height="630" rx="32" fill="#F8FAFC"/>
  <rect x="36" y="36" width="1128" height="558" rx="28" fill="url(#bg)"/>

  <rect x="108" y="116" width="426" height="392" rx="30" fill="#FFFFFF"/>
  <rect x="142" y="152" width="152" height="24" rx="12" fill="#2563EB"/>
  <rect x="142" y="196" width="258" height="18" rx="9" fill="#0F172A"/>
  <rect x="142" y="228" width="212" height="14" rx="7" fill="#94A3B8"/>
  <rect x="142" y="276" width="168" height="64" rx="22" fill="#DBEAFE"/>
  <rect x="162" y="298" width="114" height="12" rx="6" fill="#2563EB"/>
  <rect x="162" y="320" width="86" height="12" rx="6" fill="#60A5FA"/>
  <rect x="348" y="360" width="152" height="64" rx="22" fill="#0F172A"/>
  <rect x="368" y="382" width="96" height="10" rx="5" fill="#E2E8F0"/>
  <rect x="368" y="402" width="74" height="10" rx="5" fill="#CBD5E1"/>
  <rect x="142" y="446" width="324" height="18" rx="9" fill="#E2E8F0"/>

  <rect x="582" y="116" width="510" height="392" rx="30" fill="#0F172A"/>
  <rect x="616" y="152" width="184" height="24" rx="12" fill="#F59E0B"/>
  <rect x="616" y="196" width="296" height="18" rx="9" fill="#FFFFFF"/>
  <rect x="616" y="228" width="248" height="14" rx="7" fill="#94A3B8"/>
  <rect x="616" y="278" width="442" height="72" rx="24" fill="#1E293B"/>
  <rect x="640" y="300" width="150" height="12" rx="6" fill="#FDE68A"/>
  <rect x="640" y="322" width="226" height="12" rx="6" fill="#FCD34D"/>
  <rect x="616" y="372" width="202" height="86" rx="24" fill="#111827" stroke="#334155"/>
  <rect x="840" y="372" width="218" height="86" rx="24" fill="#1F2937" stroke="#334155"/>
  <rect x="640" y="398" width="92" height="10" rx="5" fill="#E5E7EB"/>
  <rect x="640" y="418" width="72" height="10" rx="5" fill="#9CA3AF"/>
  <rect x="866" y="398" width="108" height="10" rx="5" fill="#E5E7EB"/>
  <rect x="866" y="418" width="84" height="10" rx="5" fill="#9CA3AF"/>

  <path d="M552 122L552 500" stroke="#94A3B8" stroke-width="4" stroke-dasharray="12 12"/>
  <circle cx="552" cy="310" r="42" fill="#FFFFFF"/>
  <path d="M540 310H564" stroke="#0F172A" stroke-width="4" stroke-linecap="round"/>
  <path d="M552 298V322" stroke="#0F172A" stroke-width="4" stroke-linecap="round"/>

  <defs>
    <linearGradient id="bg" x1="110" y1="92" x2="1090" y2="556" gradientUnits="userSpaceOnUse">
      <stop stop-color="#E0F2FE"/>
      <stop offset="0.48" stop-color="#F8FAFC"/>
      <stop offset="1" stop-color="#E5E7EB"/>
    </linearGradient>
  </defs>
</svg>
