<svg width="1200" height="630" viewBox="0 0 1200 630" fill="none" xmlns="http://www.w3.org/2000/svg">
  <rect width="1200" height="630" rx="36" fill="url(#bg)"/>
  <rect x="74" y="84" width="1052" height="462" rx="32" fill="white" fill-opacity="0.84"/>
  <rect x="118" y="124" width="308" height="382" rx="24" fill="#F8FAFC"/>
  <rect x="462" y="124" width="620" height="382" rx="24" fill="#EFF6FF"/>
  <text x="150" y="174" fill="#0F172A" font-size="34" font-family="Arial, sans-serif" font-weight="700">Slack setup</text>
  <rect x="150" y="212" width="244" height="54" rx="16" fill="white"/>
  <text x="174" y="246" fill="#334155" font-size="24" font-family="Arial, sans-serif">Choose channel</text>
  <rect x="150" y="286" width="244" height="54" rx="16" fill="white"/>
  <text x="174" y="320" fill="#334155" font-size="24" font-family="Arial, sans-serif">New conversation</text>
  <rect x="150" y="360" width="244" height="54" rx="16" fill="white"/>
  <text x="174" y="394" fill="#334155" font-size="24" font-family="Arial, sans-serif">Reply from Slack</text>
  <rect x="520" y="176" width="504" height="92" rx="24" fill="white"/>
  <circle cx="574" cy="222" r="22" fill="#2563EB"/>
  <text x="614" y="212" fill="#0F172A" font-size="30" font-family="Arial, sans-serif" font-weight="700">#support-chat</text>
  <text x="614" y="245" fill="#475569" font-size="22" font-family="Arial, sans-serif">New conversation from tina@usechatting.com</text>
  <rect x="586" y="308" width="438" height="128" rx="24" fill="white"/>
  <text x="624" y="356" fill="#0F172A" font-size="28" font-family="Arial, sans-serif" font-weight="700">Reply in thread</text>
  <text x="624" y="394" fill="#475569" font-size="22" font-family="Arial, sans-serif">Chatting sends the answer back to the visitor.</text>
  <path d="M432 286C470 286 494 286 528 286" stroke="#2563EB" stroke-width="12" stroke-linecap="round"/>
  <path d="M512 260L548 286L512 312" stroke="#2563EB" stroke-width="12" stroke-linecap="round" stroke-linejoin="round"/>
  <defs>
    <linearGradient id="bg" x1="70" y1="48" x2="1118" y2="584" gradientUnits="userSpaceOnUse">
      <stop stop-color="#DBEAFE"/>
      <stop offset="0.52" stop-color="#F8FAFC"/>
      <stop offset="1" stop-color="#FFF7ED"/>
    </linearGradient>
  </defs>
</svg>
