<svg width="1200" height="630" viewBox="0 0 1200 630" fill="none" xmlns="http://www.w3.org/2000/svg">
  <rect width="1200" height="630" rx="36" fill="#F8FAFC"/>
  <rect x="36" y="36" width="1128" height="558" rx="30" fill="url(#bg)"/>
  <rect x="92" y="112" width="348" height="402" rx="30" fill="#FFFFFF"/>
  <rect x="494" y="126" width="282" height="178" rx="28" fill="#0F172A"/>
  <rect x="494" y="338" width="282" height="176" rx="28" fill="#FFFFFF"/>
  <rect x="830" y="112" width="276" height="402" rx="30" fill="#FFFFFF"/>
  <circle cx="266" cy="204" r="56" fill="#DBEAFE"/>
  <path d="M238 204h56" stroke="#2563EB" stroke-width="16" stroke-linecap="round"/>
  <path d="M266 176v56" stroke="#2563EB" stroke-width="16" stroke-linecap="round"/>
  <rect x="152" y="306" width="228" height="22" rx="11" fill="#CBD5E1"/>
  <rect x="132" y="348" width="268" height="18" rx="9" fill="#E2E8F0"/>
  <rect x="168" y="382" width="196" height="18" rx="9" fill="#E2E8F0"/>
  <text x="636" y="178" text-anchor="middle" fill="#FFFFFF" font-family="DM Sans, Arial, sans-serif" font-size="28" font-weight="700">
    Worth it if chat
  </text>
  <text x="636" y="216" text-anchor="middle" fill="#93C5FD" font-family="DM Sans, Arial, sans-serif" font-size="24" font-weight="700">
    removes friction
  </text>
  <rect x="546" y="236" width="180" height="18" rx="9" fill="#334155"/>
  <rect x="564" y="264" width="144" height="14" rx="7" fill="#475569"/>
  <text x="968" y="176" text-anchor="middle" fill="#0F172A" font-family="DM Sans, Arial, sans-serif" font-size="26" font-weight="700">
    Keep it manageable
  </text>
  <rect x="878" y="224" width="182" height="40" rx="20" fill="#EFF6FF"/>
  <text x="969" y="249" text-anchor="middle" fill="#2563EB" font-family="DM Sans, Arial, sans-serif" font-size="18" font-weight="700">
    clear hours
  </text>
  <rect x="878" y="282" width="182" height="40" rx="20" fill="#DCFCE7"/>
  <text x="969" y="307" text-anchor="middle" fill="#166534" font-family="DM Sans, Arial, sans-serif" font-size="18" font-weight="700">
    saved replies
  </text>
  <rect x="878" y="340" width="182" height="40" rx="20" fill="#FEF3C7"/>
  <text x="969" y="365" text-anchor="middle" fill="#92400E" font-family="DM Sans, Arial, sans-serif" font-size="18" font-weight="700">
    after-hours capture
  </text>
  <rect x="878" y="398" width="182" height="40" rx="20" fill="#EDE9FE"/>
  <text x="969" y="423" text-anchor="middle" fill="#6D28D9" font-family="DM Sans, Arial, sans-serif" font-size="18" font-weight="700">
    shared inbox
  </text>
  <circle cx="552" cy="392" r="24" fill="#10B981"/>
  <path d="m540 393 9 9 16-18" stroke="#FFFFFF" stroke-width="8" stroke-linecap="round" stroke-linejoin="round"/>
  <rect x="594" y="374" width="126" height="18" rx="9" fill="#0F172A"/>
  <rect x="594" y="408" width="148" height="16" rx="8" fill="#CBD5E1"/>
  <rect x="594" y="436" width="118" height="16" rx="8" fill="#E2E8F0"/>
  <text x="92" y="560" fill="#0F172A" font-family="Fraunces, Georgia, serif" font-size="50" font-weight="700">
    Is live chat worth it?
  </text>
  <text x="92" y="596" fill="#334155" font-family="DM Sans, Arial, sans-serif" font-size="28">
    Decide by workload, buyer questions, and response timing.
  </text>
  <defs>
    <linearGradient id="bg" x1="86" y1="74" x2="1110" y2="558" gradientUnits="userSpaceOnUse">
      <stop stop-color="#E0F2FE"/>
      <stop offset="0.5" stop-color="#EFF6FF"/>
      <stop offset="1" stop-color="#FEF3C7"/>
    </linearGradient>
  </defs>
</svg>
