<svg width="1200" height="630" viewBox="0 0 1200 630" fill="none" xmlns="http://www.w3.org/2000/svg">
  <rect width="1200" height="630" rx="40" fill="#F8FAFC"/>
  <rect x="64" y="56" width="1072" height="518" rx="34" fill="url(#panel)"/>
  <circle cx="1032" cy="134" r="90" fill="#DBEAFE"/>
  <circle cx="170" cy="508" r="84" fill="#E0F2FE"/>

  <rect x="142" y="144" width="286" height="272" rx="30" fill="#FFFFFF" stroke="#E2E8F0" stroke-width="2"/>
  <circle cx="285" cy="280" r="62" fill="#EFF6FF"/>
  <path d="M285 246C304 246 318 258 318 275C318 287 311 296 300 302C289 308 285 314 285 326" stroke="#2563EB" stroke-width="12" stroke-linecap="round"/>
  <circle cx="285" cy="352" r="7" fill="#2563EB"/>
  <rect x="194" y="188" width="92" height="16" rx="8" fill="#DBEAFE"/>
  <rect x="194" y="446" width="182" height="16" rx="8" fill="#CBD5E1"/>
  <rect x="194" y="478" width="142" height="16" rx="8" fill="#E2E8F0"/>

  <rect x="458" y="112" width="284" height="340" rx="32" fill="#0F172A"/>
  <rect x="522" y="166" width="156" height="116" rx="28" fill="#1E293B"/>
  <circle cx="600" cy="224" r="38" fill="#DBEAFE"/>
  <path d="m582 223 14 14 24-27" stroke="#2563EB" stroke-width="10" stroke-linecap="round" stroke-linejoin="round"/>
  <rect x="506" y="324" width="188" height="88" rx="28" fill="#172036"/>
  <rect x="540" y="348" width="120" height="20" rx="10" fill="#60A5FA"/>
  <rect x="564" y="382" width="72" height="14" rx="7" fill="#475569"/>

  <rect x="772" y="144" width="286" height="272" rx="30" fill="#FFFFFF" stroke="#E2E8F0" stroke-width="2"/>
  <rect x="836" y="184" width="158" height="42" rx="21" fill="#EFF6FF"/>
  <circle cx="866" cy="205" r="8" fill="#2563EB"/>
  <rect x="886" y="196" width="76" height="18" rx="9" fill="#93C5FD"/>
  <rect x="836" y="244" width="158" height="42" rx="21" fill="#DCFCE7"/>
  <circle cx="866" cy="265" r="8" fill="#10B981"/>
  <rect x="886" y="256" width="92" height="18" rx="9" fill="#86EFAC"/>
  <rect x="836" y="304" width="158" height="42" rx="21" fill="#FEF3C7"/>
  <circle cx="866" cy="325" r="8" fill="#F59E0B"/>
  <rect x="886" y="316" width="82" height="18" rx="9" fill="#FCD34D"/>
  <rect x="836" y="364" width="158" height="42" rx="21" fill="#EDE9FE"/>
  <circle cx="866" cy="385" r="8" fill="#7C3AED"/>
  <rect x="886" y="376" width="98" height="18" rx="9" fill="#C4B5FD"/>

  <defs>
    <linearGradient id="panel" x1="98" y1="84" x2="1098" y2="552" gradientUnits="userSpaceOnUse">
      <stop stop-color="#FFFFFF"/>
      <stop offset="0.54" stop-color="#EFF6FF"/>
      <stop offset="1" stop-color="#FFF7ED"/>
    </linearGradient>
  </defs>
</svg>
