<svg width="1200" height="630" viewBox="0 0 1200 630" fill="none" xmlns="http://www.w3.org/2000/svg">
  <rect width="1200" height="630" rx="36" fill="#F8FAFC"/>
  <rect x="36" y="36" width="1128" height="558" rx="30" fill="url(#bg)"/>
  <rect x="108" y="118" width="360" height="394" rx="30" fill="#FFFFFF"/>
  <rect x="138" y="152" width="210" height="20" rx="10" fill="#2563EB"/>
  <rect x="138" y="188" width="254" height="16" rx="8" fill="#CBD5E1"/>
  <rect x="138" y="216" width="224" height="16" rx="8" fill="#E2E8F0"/>
  <rect x="138" y="264" width="300" height="92" rx="24" fill="#EFF6FF"/>
  <path d="M170 304H324" stroke="#60A5FA" stroke-width="18" stroke-linecap="round"/>
  <path d="M170 338H290" stroke="#93C5FD" stroke-width="18" stroke-linecap="round"/>
  <rect x="522" y="138" width="556" height="146" rx="30" fill="#FFFFFF"/>
  <circle cx="576" cy="192" r="30" fill="#DBEAFE"/>
  <path d="M561 192h30" stroke="#2563EB" stroke-width="10" stroke-linecap="round"/>
  <path d="M576 177v30" stroke="#2563EB" stroke-width="10" stroke-linecap="round"/>
  <rect x="624" y="170" width="160" height="18" rx="9" fill="#0F172A"/>
  <rect x="624" y="204" width="332" height="16" rx="8" fill="#CBD5E1"/>
  <rect x="624" y="232" width="276" height="16" rx="8" fill="#E2E8F0"/>
  <rect x="522" y="320" width="556" height="146" rx="30" fill="#FFFFFF"/>
  <circle cx="576" cy="374" r="30" fill="#DCFCE7"/>
  <path d="m562 375 10 10 20-22" stroke="#16A34A" stroke-width="10" stroke-linecap="round" stroke-linejoin="round"/>
  <rect x="624" y="352" width="178" height="18" rx="9" fill="#0F172A"/>
  <rect x="624" y="386" width="318" height="16" rx="8" fill="#CBD5E1"/>
  <rect x="624" y="414" width="238" height="16" rx="8" fill="#BFDBFE"/>
  <circle cx="104" cy="84" r="10" fill="#2563EB"/>
  <circle cx="134" cy="84" r="10" fill="#60A5FA"/>
  <circle cx="164" cy="84" r="10" fill="#93C5FD"/>
  <defs>
    <linearGradient id="bg" x1="84" y1="78" x2="1112" y2="556" gradientUnits="userSpaceOnUse">
      <stop stop-color="#EFF6FF"/>
      <stop offset="1" stop-color="#FFFFFF"/>
    </linearGradient>
  </defs>
</svg>
