<svg width="1200" height="630" viewBox="0 0 1200 630" fill="none" xmlns="http://www.w3.org/2000/svg">
  <rect width="1200" height="630" rx="36" fill="#F8FAFC"/>
  <rect x="36" y="36" width="1128" height="558" rx="30" fill="url(#bg)"/>
  <rect x="92" y="128" width="300" height="330" rx="28" fill="#FFFFFF" fill-opacity="0.9"/>
  <rect x="450" y="96" width="304" height="390" rx="30" fill="#0F172A" fill-opacity="0.94"/>
  <rect x="810" y="154" width="300" height="246" rx="28" fill="#FFFFFF" fill-opacity="0.92"/>
  <rect x="138" y="176" width="208" height="22" rx="11" fill="#2563EB" fill-opacity="0.2"/>
  <rect x="138" y="222" width="176" height="18" rx="9" fill="#CBD5E1"/>
  <rect x="138" y="258" width="200" height="18" rx="9" fill="#CBD5E1"/>
  <rect x="138" y="294" width="164" height="18" rx="9" fill="#CBD5E1"/>
  <rect x="138" y="350" width="108" height="34" rx="17" fill="#10B981"/>
  <rect x="266" y="350" width="108" height="34" rx="17" fill="#F59E0B"/>
  <rect x="522" y="138" width="160" height="18" rx="9" fill="#FFFFFF" fill-opacity="0.94"/>
  <rect x="548" y="168" width="108" height="12" rx="6" fill="#60A5FA"/>
  <rect x="500" y="210" width="204" height="48" rx="24" fill="#1D4ED8"/>
  <circle cx="530" cy="234" r="6" fill="#FFFFFF" fill-opacity="0.95"/>
  <rect x="548" y="230" width="120" height="8" rx="4" fill="#FFFFFF" fill-opacity="0.95"/>
  <rect x="548" y="244" width="76" height="6" rx="3" fill="#BFDBFE"/>
  <rect x="500" y="280" width="204" height="48" rx="24" fill="#1E293B"/>
  <circle cx="530" cy="304" r="6" fill="#E2E8F0"/>
  <rect x="548" y="300" width="108" height="8" rx="4" fill="#E2E8F0"/>
  <rect x="548" y="314" width="70" height="6" rx="3" fill="#94A3B8"/>
  <rect x="500" y="350" width="204" height="48" rx="24" fill="#1E293B"/>
  <circle cx="530" cy="374" r="6" fill="#E2E8F0"/>
  <rect x="548" y="370" width="124" height="8" rx="4" fill="#E2E8F0"/>
  <rect x="548" y="384" width="82" height="6" rx="3" fill="#94A3B8"/>
  <circle cx="876" cy="220" r="22" fill="#2563EB"/>
  <circle cx="930" cy="220" r="22" fill="#10B981"/>
  <circle cx="984" cy="220" r="22" fill="#F59E0B"/>
  <rect x="848" y="266" width="214" height="20" rx="10" fill="#CBD5E1"/>
  <rect x="848" y="304" width="192" height="20" rx="10" fill="#E2E8F0"/>
  <rect x="848" y="342" width="154" height="20" rx="10" fill="#E2E8F0"/>
  <text x="92" y="542" fill="#0F172A" font-family="Fraunces, Georgia, serif" font-size="48" font-weight="700">
    Support without a full team
  </text>
  <text x="92" y="582" fill="#334155" font-family="DM Sans, Arial, sans-serif" font-size="28">
    Automate the repetitive layer. Keep the risky decisions human.
  </text>
  <defs>
    <linearGradient id="bg" x1="96" y1="72" x2="1098" y2="560" gradientUnits="userSpaceOnUse">
      <stop stop-color="#DBEAFE"/>
      <stop offset="0.55" stop-color="#EFF6FF"/>
      <stop offset="1" stop-color="#FEF3C7"/>
    </linearGradient>
  </defs>
</svg>
