<svg width="1200" height="630" viewBox="0 0 1200 630" fill="none" xmlns="http://www.w3.org/2000/svg">
  <rect width="1200" height="630" rx="36" fill="#F8FAFC"/>
  <rect x="36" y="36" width="1128" height="558" rx="30" fill="url(#bg)"/>
  <rect x="96" y="126" width="300" height="318" rx="28" fill="#FFFFFF" fill-opacity="0.9"/>
  <rect x="450" y="88" width="300" height="394" rx="28" fill="#0F172A" fill-opacity="0.94"/>
  <rect x="804" y="146" width="300" height="260" rx="28" fill="#FFFFFF" fill-opacity="0.92"/>
  <path d="M396 286H450" stroke="#2563EB" stroke-width="18" stroke-linecap="round"/>
  <path d="M750 286H804" stroke="#2563EB" stroke-width="18" stroke-linecap="round"/>
  <circle cx="246" cy="208" r="54" fill="#DBEAFE"/>
  <path d="M224 208H268" stroke="#2563EB" stroke-width="14" stroke-linecap="round"/>
  <path d="M246 186V230" stroke="#2563EB" stroke-width="14" stroke-linecap="round"/>
  <rect x="156" y="300" width="180" height="22" rx="11" fill="#CBD5E1"/>
  <rect x="132" y="340" width="228" height="18" rx="9" fill="#E2E8F0"/>
  <rect x="168" y="374" width="156" height="18" rx="9" fill="#E2E8F0"/>
  <text x="600" y="170" text-anchor="middle" fill="#FFFFFF" font-family="DM Sans, Arial, sans-serif" font-size="30" font-weight="700">
    Why aren't they converting?
  </text>
  <rect x="500" y="214" width="200" height="44" rx="22" fill="#1D4ED8"/>
  <text x="600" y="242" text-anchor="middle" fill="#FFFFFF" font-family="DM Sans, Arial, sans-serif" font-size="20" font-weight="700">
    Unanswered questions
  </text>
  <rect x="500" y="280" width="200" height="44" rx="22" fill="#1E293B"/>
  <text x="600" y="308" text-anchor="middle" fill="#E2E8F0" font-family="DM Sans, Arial, sans-serif" font-size="20" font-weight="700">
    Weak proof
  </text>
  <rect x="500" y="346" width="200" height="44" rx="22" fill="#1E293B"/>
  <text x="600" y="374" text-anchor="middle" fill="#E2E8F0" font-family="DM Sans, Arial, sans-serif" font-size="20" font-weight="700">
    Too much friction
  </text>
  <circle cx="954" cy="216" r="22" fill="#10B981"/>
  <rect x="992" y="196" width="74" height="18" rx="9" fill="#0F172A" fill-opacity="0.16"/>
  <rect x="846" y="262" width="216" height="20" rx="10" fill="#CBD5E1"/>
  <rect x="846" y="300" width="196" height="20" rx="10" fill="#E2E8F0"/>
  <rect x="846" y="338" width="144" height="20" rx="10" fill="#E2E8F0"/>
  <text x="96" y="542" fill="#0F172A" font-family="Fraunces, Georgia, serif" font-size="54" font-weight="700">
    Traffic without conversion
  </text>
  <text x="96" y="582" fill="#334155" font-family="DM Sans, Arial, sans-serif" font-size="28">
    Use chat to uncover hesitation before visitors leave.
  </text>
  <defs>
    <linearGradient id="bg" x1="82" y1="72" x2="1096" y2="558" gradientUnits="userSpaceOnUse">
      <stop stop-color="#E0F2FE"/>
      <stop offset="0.56" stop-color="#EFF6FF"/>
      <stop offset="1" stop-color="#FEF3C7"/>
    </linearGradient>
  </defs>
</svg>
