<svg width="1200" height="630" viewBox="0 0 1200 630" fill="none" xmlns="http://www.w3.org/2000/svg">
  <rect width="1200" height="630" rx="36" fill="#F8FAFC"/>
  <rect x="36" y="36" width="1128" height="558" rx="30" fill="url(#bg)"/>
  <rect x="88" y="120" width="330" height="382" rx="30" fill="#FFFFFF"/>
  <rect x="468" y="102" width="312" height="192" rx="30" fill="#0F172A"/>
  <rect x="468" y="330" width="312" height="172" rx="30" fill="#FFFFFF"/>
  <rect x="830" y="120" width="282" height="382" rx="30" fill="#FFFFFF"/>
  <circle cx="252" cy="202" r="58" fill="#DBEAFE"/>
  <path d="M224 202h56" stroke="#2563EB" stroke-width="16" stroke-linecap="round"/>
  <path d="M252 174v56" stroke="#2563EB" stroke-width="16" stroke-linecap="round"/>
  <rect x="146" y="304" width="212" height="22" rx="11" fill="#CBD5E1"/>
  <rect x="126" y="346" width="252" height="18" rx="9" fill="#E2E8F0"/>
  <rect x="162" y="380" width="180" height="18" rx="9" fill="#E2E8F0"/>
  <rect x="534" y="144" width="180" height="18" rx="9" fill="#FFFFFF" fill-opacity="0.94"/>
  <rect x="560" y="176" width="128" height="12" rx="6" fill="#60A5FA"/>
  <rect x="532" y="206" width="184" height="18" rx="9" fill="#1D4ED8"/>
  <rect x="550" y="238" width="148" height="14" rx="7" fill="#60A5FA"/>
  <circle cx="548" cy="384" r="22" fill="#10B981"/>
  <path d="m537 385 8 8 15-17" stroke="#FFFFFF" stroke-width="8" stroke-linecap="round" stroke-linejoin="round"/>
  <rect x="590" y="366" width="138" height="18" rx="9" fill="#0F172A"/>
  <rect x="590" y="400" width="160" height="16" rx="8" fill="#CBD5E1"/>
  <rect x="590" y="428" width="124" height="16" rx="8" fill="#E2E8F0"/>
  <rect x="882" y="166" width="152" height="18" rx="9" fill="#0F172A"/>
  <rect x="882" y="196" width="110" height="12" rx="6" fill="#CBD5E1"/>
  <rect x="882" y="204" width="178" height="38" rx="19" fill="#EFF6FF"/>
  <circle cx="912" cy="223" r="8" fill="#2563EB"/>
  <rect x="934" y="219" width="84" height="8" rx="4" fill="#2563EB"/>
  <rect x="934" y="232" width="56" height="6" rx="3" fill="#93C5FD"/>
  <rect x="882" y="262" width="178" height="38" rx="19" fill="#DCFCE7"/>
  <circle cx="912" cy="281" r="8" fill="#16A34A"/>
  <rect x="934" y="277" width="92" height="8" rx="4" fill="#166534" fill-opacity="0.9"/>
  <rect x="934" y="290" width="62" height="6" rx="3" fill="#86EFAC"/>
  <rect x="882" y="320" width="178" height="38" rx="19" fill="#FEF3C7"/>
  <circle cx="912" cy="339" r="8" fill="#D97706"/>
  <rect x="934" y="335" width="88" height="8" rx="4" fill="#92400E" fill-opacity="0.92"/>
  <rect x="934" y="348" width="60" height="6" rx="3" fill="#FCD34D"/>
  <rect x="882" y="378" width="178" height="38" rx="19" fill="#EDE9FE"/>
  <circle cx="912" cy="397" r="8" fill="#7C3AED"/>
  <rect x="934" y="393" width="94" height="8" rx="4" fill="#6D28D9" fill-opacity="0.92"/>
  <rect x="934" y="406" width="66" height="6" rx="3" fill="#C4B5FD"/>
  <text x="88" y="554" fill="#0F172A" font-family="Fraunces, Georgia, serif" font-size="48" font-weight="700">
    What is live chat?
  </text>
  <text x="88" y="592" fill="#334155" font-family="DM Sans, Arial, sans-serif" font-size="28">
    12 benefits for small businesses in 2026.
  </text>
  <defs>
    <linearGradient id="bg" x1="88" y1="72" x2="1110" y2="558" gradientUnits="userSpaceOnUse">
      <stop stop-color="#E0F2FE"/>
      <stop offset="0.56" stop-color="#EFF6FF"/>
      <stop offset="1" stop-color="#FEF3C7"/>
    </linearGradient>
  </defs>
</svg>
