<svg width="1200" height="630" viewBox="0 0 1200 630" fill="none" xmlns="http://www.w3.org/2000/svg">
  <rect width="1200" height="630" rx="36" fill="#F8FAFC"/>
  <rect x="36" y="36" width="1128" height="558" rx="30" fill="url(#bg)"/>
  <rect x="86" y="122" width="282" height="360" rx="28" fill="#E2E8F0"/>
  <rect x="108" y="150" width="238" height="34" rx="17" fill="#CBD5E1"/>
  <rect x="108" y="204" width="180" height="20" rx="10" fill="#CBD5E1"/>
  <rect x="108" y="242" width="210" height="20" rx="10" fill="#CBD5E1"/>
  <rect x="108" y="298" width="238" height="132" rx="24" fill="#F1F5F9"/>
  <path d="M150 338H304" stroke="#94A3B8" stroke-width="18" stroke-linecap="round"/>
  <path d="M150 378H274" stroke="#94A3B8" stroke-width="18" stroke-linecap="round"/>
  <path d="M458 114H1098" stroke="#BFDBFE" stroke-width="2"/>
  <rect x="500" y="148" width="238" height="134" rx="28" fill="#FFFFFF"/>
  <rect x="530" y="180" width="122" height="18" rx="9" fill="#2563EB"/>
  <rect x="530" y="214" width="164" height="16" rx="8" fill="#94A3B8"/>
  <rect x="530" y="244" width="122" height="16" rx="8" fill="#CBD5E1"/>
  <rect x="770" y="148" width="238" height="134" rx="28" fill="#FFFFFF"/>
  <rect x="800" y="180" width="116" height="18" rx="9" fill="#0F172A"/>
  <rect x="800" y="214" width="162" height="16" rx="8" fill="#94A3B8"/>
  <rect x="800" y="244" width="118" height="16" rx="8" fill="#CBD5E1"/>
  <rect x="500" y="314" width="508" height="148" rx="32" fill="#FFFFFF"/>
  <rect x="530" y="346" width="168" height="18" rx="9" fill="#2563EB"/>
  <rect x="530" y="380" width="438" height="16" rx="8" fill="#CBD5E1"/>
  <rect x="530" y="410" width="382" height="16" rx="8" fill="#E2E8F0"/>
  <rect x="530" y="440" width="214" height="16" rx="8" fill="#BFDBFE"/>
  <circle cx="109" cy="82" r="10" fill="#2563EB"/>
  <circle cx="139" cy="82" r="10" fill="#60A5FA"/>
  <circle cx="169" cy="82" r="10" fill="#93C5FD"/>
  <defs>
    <linearGradient id="bg" x1="90" y1="90" x2="1110" y2="540" gradientUnits="userSpaceOnUse">
      <stop stop-color="#EFF6FF"/>
      <stop offset="1" stop-color="#FFFFFF"/>
    </linearGradient>
  </defs>
</svg>
